HIERARCHY
ROOT pelvis
{
  OFFSET 0 100 0
  CHANNELS 6 Xposition Yposition Zposition Zrotation Xrotation Yrotation
  JOINT pelvis_right_femur
  {
    OFFSET -10.78128 -3.44521 -0.5502486
    CHANNELS 3 Zrotation Xrotation Yrotation
    JOINT right_femur_tibia
    {
      OFFSET -0.8047443 -44.0398 -0.1307829
      CHANNELS 3 Zrotation Xrotation Yrotation
      JOINT right_tibia_foot
      {
        OFFSET 3.006224 -47.83518 -5
        CHANNELS 3 Zrotation Xrotation Yrotation
        End Site
        {
          OFFSET 0 -5 15
        }
      }
    }
  }
  JOINT pelvis_left_femur
  {
    OFFSET 10.78128 -3.44521 -0.5502486
    CHANNELS 3 Zrotation Xrotation Yrotation
    JOINT left_femur_tibia
    {
      OFFSET 0.8047443 -44.0398 -0.1307829
      CHANNELS 3 Zrotation Xrotation Yrotation
      JOINT left_tibia_foot
      {
        OFFSET -4.370144 -48.10324 -4.275266
        CHANNELS 3 Zrotation Xrotation Yrotation
        End Site
        {
          OFFSET 0 -5 15
        }
      }
    }
  }
  JOINT pelvis_spine1
  {
    OFFSET 0 6.468898 -3.129235
    CHANNELS 3 Zrotation Xrotation Yrotation
    JOINT spine1
    {
      OFFSET 0 23.15396 4.99043
      CHANNELS 3 Zrotation Xrotation Yrotation
      JOINT spine2
      {
        OFFSET 0 20.79997 -5.064912
        CHANNELS 3 Zrotation Xrotation Yrotation
        JOINT neck
        {
          OFFSET 0 14.38658 9.616178
          CHANNELS 3 Zrotation Xrotation Yrotation
          End Site
          {
            OFFSET 0 20 0
          }
        }
      }
      JOINT right_manubrium
      {
        OFFSET -5.722621 16.35077 3.967754
        CHANNELS 3 Zrotation Xrotation Yrotation
        JOINT right_clavicle
        {
          OFFSET -13.16364 1.694482 -4.693211
          CHANNELS 3 Zrotation Xrotation Yrotation
          JOINT right_humerus
          {
            OFFSET -28.5034 -0.3100689 -2.792744
            CHANNELS 3 Zrotation Xrotation Yrotation
            JOINT right_radius
            {
              OFFSET -25.15693 0.02248979 -1.271978
              CHANNELS 3 Zrotation Xrotation Yrotation
              End Site
              {
                OFFSET -15 0 0
              }
            }
          }
        }
      }
      JOINT left_manubrium
      {
        OFFSET 5.722621 16.35077 3.967754
        CHANNELS 3 Zrotation Xrotation Yrotation
        JOINT left_clavicle
        {
          OFFSET 13.16364 1.694482 -4.693211
          CHANNELS 3 Zrotation Xrotation Yrotation
          JOINT left_humerus
          {
            OFFSET 29.39168 -1.063119 -2.237045
            CHANNELS 3 Zrotation Xrotation Yrotation
            JOINT left_radius
            {
              OFFSET 24.59957 -0.9528479 0.9047498
              CHANNELS 3 Zrotation Xrotation Yrotation
              End Site
              {
                OFFSET 15 -0 -0
              }
            }
          }
        }
      }
    }
  }
}
MOTION
Frames: 13
Frame Time: 0.0416666666667
0 103.5113 0 1.958649 0.1664017 -0.01872907 3.172809 -17.525 10.98443 -0 38.77845 -0 -4.797928 -18.43126 -3.271254 -8.418587 9.238681 -23.56105 -0 5.82175 -0 21.12789 -8.505272 30.41789 -4.333088 -3.882248 5.473902 2.805981 10.65917 -7.318873 1.987017 22.41557 5.430474 1.90687 -25.19786 9.685843 6.385994 -21.28706 11.69308 86.51108 39.67545 -17.73859 -0 0 15.15822 -4.938477 7.042689 5.778997 3.046211 -17.15412 -3.722226 -90.12764 21.93274 19.75902 0 0 -17.21957 16.26907 11.65387 -2.453564
0.2386131 103.4248 1.508557 1.770781 -0.1486031 0.02196272 3.39297 -18.49675 10.80019 -0 39.33467 -0 -5.228676 -17.73046 -3.316309 -8.144011 9.389174 -23.40481 -0 5.819748 -0 21.21093 -8.295472 30.14917 -4.247893 -3.373533 5.104121 2.781697 10.77687 -7.167037 2.038301 22.53303 5.445144 1.99485 -25.00946 9.643212 6.445848 -21.14188 11.82435 86.59946 39.68117 -17.55946 -0 0 14.60778 -5.201991 7.055103 6.107863 2.775536 -17.10475 -4.318567 -89.74592 22.31657 19.27281 0 0 -17.6776 16.19114 11.52331 -2.177401
0.2785293 102.191 3.902415 -0.5961605 -0.8833989 0.1246911 4.954728 -27.72037 5.404445 -0 26.85682 -0 -7.486366 -11.54826 -2.411967 -5.372101 14.22964 -18.37898 -0 0.6744634 -0 7.57179 -19.94367 22.98756 -2.240386 -2.082141 3.24883 2.510487 9.766162 -8.035331 1.423585 22.72527 6.673959 2.579598 -25.52084 9.589733 2.873375 -19.38174 11.15468 89.68788 29.30838 -21.72386 -0 0 10.91643 -9.607666 7.886982 5.344388 6.750794 -23.01008 -3.528271 -89.68332 26.7659 16.15428 0 0 -23.59427 12.19249 18.23253 1.170962
0.4783252 101.395 5.983967 -0.04886568 0.7446956 0.1173695 5.045264 -23.61093 8.051188 -0 29.76671 -0 -6.432816 -13.71044 -2.584662 -6.320921 11.61108 -20.17306 -0 2.812926 -0 8.861614 -19.55651 25.40089 -2.963082 -3.727337 4.765967 2.626465 9.71219 -8.340754 1.396576 21.43636 6.777595 2.933096 -25.85765 9.683809 4.782355 -19.75674 11.24584 87.22033 32.79512 -20.52755 -0 0 14.8242 -8.125187 8.783892 4.100633 7.936659 -22.27779 -0.5743129 -91.96661 23.39893 18.9684 0 0 -18.43542 13.52052 17.71942 -1.443268
0.6448845 100.3715 8.493012 -0.7697506 1.107685 0.2068642 5.876639 -27.53814 6.935477 -0 25.67009 -0 -7.200926 -10.73477 -2.259513 -5.517891 12.79343 -18.97026 -0 3.142773 -0 5.633596 -22.05556 22.99662 -2.539706 -2.977588 4.128702 2.729891 9.518063 -8.531647 1.389178 21.04308 7.087983 3.405388 -25.93637 9.533996 4.588615 -19.07903 11.21044 87.48363 31.62463 -21.2425 -0 0 13.82542 -9.1372 9.22045 4.370017 8.666284 -23.24534 -0.5614955 -91.63566 24.18801 17.92912 0 0 -19.9395 12.13473 18.28024 -0.08582602
0.8115897 99.38923 11.12473 -1.096082 1.459024 0.3627491 6.332491 -28.59004 7.092009 -0 25.02862 -0 -7.407136 -9.666673 -2.260693 -5.212751 12.84942 -18.98505 -0 4.059538 -0 3.73166 -23.09211 22.1462 -2.326217 -2.670957 4.010702 2.689201 9.265107 -8.512161 1.434914 20.80658 7.329162 3.721847 -26.02004 9.621016 4.901687 -18.77691 11.162 87.27871 32.04757 -21.38541 -0 0 13.95236 -9.208256 9.625432 4.238207 8.871887 -23.27629 -0.3226494 -92.31548 25.27434 18.59826 0 0 -19.77014 10.55972 18.70236 1.876989
0.9339923 98.33058 14.0652 -1.454014 1.637562 0.5976691 6.678303 -30.74924 6.40574 -0 22.56843 -0 -7.777017 -8.03434 -2.119305 -4.790159 13.76289 -18.39906 -0 4.70831 -0 1.994822 -23.97603 20.62846 -2.019107 -2.13881 3.571787 2.730612 9.041754 -8.533683 1.481556 20.80533 7.45771 3.886648 -26.07255 9.611729 4.681692 -18.37258 11.05518 87.73406 31.66157 -21.95794 -0 0 12.98144 -9.658242 9.765308 4.52952 8.763112 -23.47059 -0.7565328 -92.04214 26.56152 18.14515 0 0 -21.10907 9.113499 18.81603 3.810994
1.034171 97.27509 17.21333 -1.704743 1.82398 0.8980493 6.919211 -32.02599 6.103865 -0 21.18658 -0 -7.981307 -6.931873 -2.089757 -4.505588 14.29239 -18.20646 -0 5.551545 -0 0.4784968 -24.5236 19.5467 -1.75699 -1.724867 3.302538 2.699641 8.769723 -8.480245 1.544968 20.8407 7.588582 4.043416 -26.09863 9.667263 4.660332 -18.06265 10.93543 88.00333 31.82729 -22.34244 -0 0 12.44089 -9.833755 9.94737 4.665557 8.535852 -23.379 -1.089513 -92.20909 28.07507 18.34461 0 0 -21.88069 7.380295 18.91688 6.19243
1.107561 96.20706 20.63036 -1.910017 1.974934 1.256886 7.051041 -33.24659 5.587797 -0 19.4458 -0 -8.172539 -5.816472 -2.051273 -4.260847 14.98873 -17.84518 -0 6.527791 -0 -0.7832456 -24.84108 18.3838 -1.509783 -1.349942 2.992994 2.716664 8.505103 -8.456366 1.599232 20.93835 7.659882 4.110055 -26.12357 9.693322 4.484434 -17.73047 10.80006 88.42049 31.77867 -22.79695 -0 0 11.64531 -10.08143 10.03008 4.919779 8.202247 -23.26048 -1.514631 -92.0814 29.36487 18.21695 0 0 -22.83197 5.903511 18.81393 8.251305
1.1641 95.15727 24.30439 -2.069044 2.133981 1.668281 7.122251 -34.11962 5.147362 -0 18.00134 -0 -8.298888 -4.863891 -2.067051 -4.069641 15.57774 -17.57708 -0 7.715241 -0 -1.974811 -24.97147 17.30405 -1.274656 -1.01037 2.730013 2.716273 8.199839 -8.406397 1.658277 21.06301 7.720687 4.161949 -26.12598 9.727372 4.363529 -17.40061 10.6511 88.78989 31.93233 -23.18913 -0 0 10.9593 -10.24517 10.11814 5.148059 7.785781 -22.99535 -1.924219 -92.08128 30.73786 18.29026 0 0 -23.58426 4.276823 18.61485 10.52264
1.201382 94.13492 28.28596 -2.193224 2.25666 2.123536 7.106279 -34.74945 4.585093 -0 16.48195 -0 -8.41283 -3.972757 -2.127386 -3.904292 16.24797 -17.21289 -0 9.246554 -0 -3.069582 -24.85521 16.1514 -1.036519 -0.7066424 2.439307 2.738351 7.856961 -8.356768 1.71736 21.25872 7.737671 4.137734 -26.10535 9.756112 4.14845 -17.01041 10.47916 89.24782 31.9989 -23.59928 -0 0 10.10767 -10.44063 10.16549 5.436616 7.258465 -22.63367 -2.367772 -91.93722 32.02786 18.2087 0 0 -24.30271 2.730105 18.29171 12.69456
1.222593 93.1761 32.60883 -2.279655 2.363579 2.6124 7.032498 -34.96969 4.006696 -0 15.15478 -0 -8.494244 -3.22833 -2.268527 -3.766782 16.87548 -16.82242 -0 11.28188 -0 -4.136032 -24.4356 14.94557 -0.7934786 -0.4368751 2.148729 2.765525 7.452552 -8.286468 1.778143 21.50684 7.719837 4.061296 -26.04151 9.777353 3.929328 -16.5464 10.28978 89.6989 32.15601 -23.94794 -0 0 9.237649 -10.61122 10.21457 5.738759 6.620164 -22.10464 -2.794456 -91.79119 33.28212 18.14785 0 0 -24.78071 1.137297 17.84088 14.90737
1.225202 92.32915 37.32914 -2.333569 2.401732 3.113164 6.918975 -34.57586 3.393076 -0 14.12745 -0 -8.579298 -2.733379 -2.524839 -3.632366 17.45193 -16.32998 -0 14.14243 -0 -5.168764 -23.52388 13.62911 -0.5276042 -0.2266571 1.830444 2.809305 6.985183 -8.191969 1.837212 21.83645 7.638071 3.886843 -25.90473 9.783718 3.663962 -15.94894 10.09023 90.15563 32.30373 -24.19509 -0 0 8.274768 -10.79765 10.27613 6.065052 5.856692 -21.39154 -3.174797 -91.53785 34.32076 17.95542 0 0 -24.87832 -0.3152567 17.29945 16.87439
